<svg width="32" height="32" viewBox="0 0 32 32" fill="none" xmlns="http://www.w3.org/2000/svg">
<path d="M7.23067 4.05078C5.51867 4.05078 4.25333 5.54945 4.31067 7.17345C4.364 8.73478 4.29333 10.7574 3.784 12.4054C3.27333 14.0588 2.41067 15.1068 1 15.2414V16.7588C2.41067 16.8934 3.27333 17.9414 3.784 19.5948C4.29333 21.2441 4.364 23.2655 4.30933 24.8268C4.25333 26.4508 5.51867 27.9495 7.232 27.9495H24.7707C26.4827 27.9495 27.7493 26.4508 27.6933 24.8268C27.6387 23.2655 27.7093 21.2441 28.2173 19.5948C28.7293 17.9414 29.5907 16.8934 31 16.7588V15.2414C29.5893 15.1068 28.7293 14.0588 28.2173 12.4054C27.7093 10.7574 27.6387 8.73478 27.6933 7.17345C27.7493 5.54945 26.4827 4.05078 24.7707 4.05078H7.23067ZM21.3387 18.7614C21.3387 20.9988 19.6707 22.3561 16.9013 22.3561H12.1867C12.1198 22.3565 12.0535 22.3436 11.9916 22.3182C11.9298 22.2928 11.8736 22.2554 11.8262 22.2082C11.7789 22.161 11.7413 22.1048 11.7158 22.043C11.6902 21.9812 11.6772 21.915 11.6773 21.8481V10.1521C11.6773 10.0854 11.6905 10.0193 11.7162 9.9576C11.7418 9.89596 11.7793 9.83998 11.8267 9.7929C11.874 9.74582 11.9302 9.70855 11.992 9.68325C12.0537 9.65794 12.1199 9.6451 12.1867 9.64545H16.8733C19.1827 9.64545 20.6987 10.8948 20.6987 12.8161C20.6987 14.1628 19.6787 15.3708 18.38 15.5814V15.6521C20.148 15.8454 21.3387 17.0708 21.3387 18.7614ZM16.3867 11.2561H13.6987V15.0534H15.9627C17.7133 15.0534 18.6773 14.3481 18.6773 13.0881C18.6773 11.9081 17.848 11.2561 16.3867 11.2561ZM13.6987 16.5588V20.7441H16.4853C18.308 20.7441 19.272 20.0121 19.272 18.6374C19.272 17.2641 18.2813 16.5588 16.368 16.5588H13.6987Z" fill="#FFF4D6"/>
</svg>
