<svg width="32" height="32" viewBox="0 0 32 32" fill="none" xmlns="http://www.w3.org/2000/svg">
<path d="M14 20C13.6222 20 13.3058 19.872 13.0507 19.616C12.7956 19.36 12.6676 19.0436 12.6667 18.6667V17.3333H14.6667V18H17.3333V16.6667H14C13.6222 16.6667 13.3058 16.5387 13.0507 16.2827C12.7956 16.0267 12.6676 15.7102 12.6667 15.3333V13.3333C12.6667 12.9556 12.7947 12.6391 13.0507 12.384C13.3067 12.1289 13.6231 12.0009 14 12H18C18.3778 12 18.6947 12.128 18.9507 12.384C19.2067 12.64 19.3342 12.9564 19.3333 13.3333V14.6667H17.3333V14H14.6667V15.3333H18C18.3778 15.3333 18.6947 15.4613 18.9507 15.7173C19.2067 15.9733 19.3342 16.2898 19.3333 16.6667V18.6667C19.3333 19.0444 19.2053 19.3613 18.9493 19.6173C18.6933 19.8733 18.3769 20.0009 18 20H14ZM22.6667 20C22.2889 20 21.9724 19.872 21.7173 19.616C21.4622 19.36 21.3342 19.0436 21.3333 18.6667V17.3333H23.3333V18H26V16.6667H22.6667C22.2889 16.6667 21.9724 16.5387 21.7173 16.2827C21.4622 16.0267 21.3342 15.7102 21.3333 15.3333V13.3333C21.3333 12.9556 21.4613 12.6391 21.7173 12.384C21.9733 12.1289 22.2898 12.0009 22.6667 12H26.6667C27.0444 12 27.3613 12.128 27.6173 12.384C27.8733 12.64 28.0009 12.9564 28 13.3333V14.6667H26V14H23.3333V15.3333H26.6667C27.0444 15.3333 27.3613 15.4613 27.6173 15.7173C27.8733 15.9733 28.0009 16.2898 28 16.6667V18.6667C28 19.0444 27.872 19.3613 27.616 19.6173C27.36 19.8733 27.0436 20.0009 26.6667 20H22.6667ZM5.33333 20C4.95556 20 4.63911 19.872 4.384 19.616C4.12889 19.36 4.00089 19.0436 4 18.6667V13.3333C4 12.9556 4.128 12.6391 4.384 12.384C4.64 12.1289 4.95644 12.0009 5.33333 12H9.33333C9.71111 12 10.028 12.128 10.284 12.384C10.54 12.64 10.6676 12.9564 10.6667 13.3333V14.6667H8.66667V14H6V18H8.66667V17.3333H10.6667V18.6667C10.6667 19.0444 10.5387 19.3613 10.2827 19.6173C10.0267 19.8733 9.71022 20.0009 9.33333 20H5.33333Z" fill="#FFF4D6"/>
</svg>
