<svg width="32" height="32" viewBox="0 0 32 32" fill="none" xmlns="http://www.w3.org/2000/svg">
<path fill-rule="evenodd" clip-rule="evenodd" d="M11.556 12.5561C11.1038 12.5561 10.6559 12.6452 10.2381 12.8182C9.82024 12.9913 9.44057 13.245 9.12077 13.5648C8.80096 13.8846 8.54728 14.2643 8.3742 14.6821C8.20112 15.1 8.11204 15.5478 8.11204 16.0001C8.11204 16.4524 8.20112 16.9002 8.3742 17.318C8.54728 17.7359 8.80096 18.1156 9.12077 18.4354C9.44057 18.7552 9.82024 19.0088 10.2381 19.1819C10.6559 19.355 11.1038 19.4441 11.556 19.4441H15V12.5561H11.556ZM15 10.5561H11.556C10.6425 10.5561 9.7663 10.1932 9.1203 9.54716C8.4743 8.90116 8.11138 8.025 8.11138 7.11141C8.11138 6.19783 8.4743 5.32167 9.1203 4.67567C9.7663 4.02967 10.6425 3.66675 11.556 3.66675H15V10.5561ZM17 3.66675V10.5561H20.444C21.3459 10.5383 22.2048 10.1676 22.8363 9.52355C23.4679 8.87948 23.8216 8.01344 23.8216 7.11141C23.8216 6.20939 23.4679 5.34335 22.8363 4.69928C22.2048 4.05521 21.3459 3.68449 20.444 3.66675H17ZM20.444 12.5547C19.54 12.5546 18.6722 12.91 18.0279 13.5441C17.3836 14.1782 17.0144 15.0402 17 15.9441V16.0547C17.0111 16.7334 17.2224 17.3937 17.6075 17.9526C17.9926 18.5116 18.5342 18.9443 19.1644 19.1964C19.7946 19.4485 20.4853 19.5087 21.1496 19.3696C21.8139 19.2305 22.4224 18.8981 22.8984 18.4143C23.3745 17.9305 23.697 17.3168 23.8254 16.6503C23.9538 15.9838 23.8824 15.2942 23.6202 14.6682C23.3579 14.0421 22.9166 13.5075 22.3515 13.1315C21.7864 12.7555 21.1228 12.5548 20.444 12.5547ZM11.556 21.4441C10.8746 21.4438 10.2083 21.6457 9.64156 22.0241C9.0748 22.4025 8.63299 22.9405 8.37202 23.57C8.11105 24.1995 8.04263 24.8923 8.17542 25.5607C8.3082 26.2292 8.63623 26.8432 9.11802 27.3252C9.59981 27.8071 10.2137 28.1354 10.8821 28.2684C11.5504 28.4015 12.2432 28.3333 12.8729 28.0726C13.5025 27.8119 14.0407 27.3703 14.4193 26.8037C14.7979 26.2371 15 25.5709 15 24.8894V21.4441H11.556Z" fill="#FFF4D6"/>
</svg>
