<svg width="32" height="32" viewBox="0 0 32 32" fill="none" xmlns="http://www.w3.org/2000/svg">
<path d="M26.6667 24.9201L16.9334 30.3201C16.2667 30.6667 15.6 30.6667 14.9334 30.3201L5.33337 24.9201L22.7334 7.38675L23.2 7.25342C23.6 7.25342 23.8267 7.42675 23.8667 7.78675L26.6667 24.9201ZM12.4667 7.65342L6.40004 17.7201L8.93337 1.78675C8.97337 1.42675 9.20004 1.25342 9.60004 1.25342C9.86671 1.25342 10.04 1.33342 10.1334 1.58675L13 6.85342L12.4667 7.65342ZM18.4667 9.33342L5.73337 22.1201L15.4 5.72008C15.5334 5.45342 15.7334 5.33342 16 5.33342C16.2667 5.33342 16.44 5.45342 16.5334 5.72008L18.4667 9.33342Z" fill="#FFF4D6"/>
</svg>
