<svg width="32" height="32" viewBox="0 0 32 32" fill="none" xmlns="http://www.w3.org/2000/svg">
<path d="M3.46676 14.1201L11.1734 6.40009L13.4268 8.66676C13.1068 9.80009 13.6268 11.0401 14.6668 11.6401V19.0268C13.8668 19.4801 13.3334 20.3468 13.3334 21.3334C13.3334 22.0407 13.6144 22.7189 14.1145 23.219C14.6146 23.7191 15.2928 24.0001 16.0001 24.0001C16.7073 24.0001 17.3856 23.7191 17.8857 23.219C18.3858 22.7189 18.6668 22.0407 18.6668 21.3334C18.6668 20.3468 18.1334 19.4801 17.3334 19.0268V12.5468L20.0934 15.3334C20.0001 15.5334 20.0001 15.7601 20.0001 16.0001C20.0001 16.7073 20.281 17.3856 20.7811 17.8857C21.2812 18.3858 21.9595 18.6668 22.6668 18.6668C23.374 18.6668 24.0523 18.3858 24.5524 17.8857C25.0525 17.3856 25.3334 16.7073 25.3334 16.0001C25.3334 15.2928 25.0525 14.6146 24.5524 14.1145C24.0523 13.6144 23.374 13.3334 22.6668 13.3334C22.4268 13.3334 22.2001 13.3334 22.0001 13.4268L18.5734 10.0001C18.739 9.38254 18.6748 8.72589 18.3928 8.15208C18.1108 7.57827 17.6301 7.1263 17.0401 6.88009C16.4668 6.66676 15.8668 6.61342 15.3334 6.76009L13.0668 4.50676L14.1201 3.46676C15.1601 2.41342 16.8401 2.41342 17.8801 3.46676L28.5334 14.1201C29.5868 15.1601 29.5868 16.8401 28.5334 17.8801L17.8801 28.5334C16.8401 29.5868 15.1601 29.5868 14.1201 28.5334L3.46676 17.8801C2.41342 16.8401 2.41342 15.1601 3.46676 14.1201Z" fill="#FFF4D6"/>
</svg>
