<svg width="32" height="32" viewBox="0 0 32 32" fill="none" xmlns="http://www.w3.org/2000/svg">
<path d="M0 20V12H2V14.6667H4.66667V12H6.66667V20H4.66667V16.6667H2V20H0ZM10.3333 20V14H8V12H14.6667V14H12.3333V20H10.3333ZM16 20V13.3333C16 12.9556 16.128 12.6391 16.384 12.384C16.64 12.1289 16.9564 12.0009 17.3333 12H23.3333C23.7111 12 24.028 12.128 24.284 12.384C24.54 12.64 24.6676 12.9564 24.6667 13.3333V20H22.6667V14H21.3333V18.6667H19.3333V14H18V20H16ZM26.6667 20V12H28.6667V18H32V20H26.6667Z" fill="#FFF4D6"/>
</svg>
