<svg width="32" height="32" viewBox="0 0 32 32" fill="none" xmlns="http://www.w3.org/2000/svg">
<path d="M13.88 12.6399C14.3466 14.1599 14.8266 15.6799 15.3066 17.2266H12.48C12.96 15.6799 13.4133 14.1599 13.88 12.6399Z" fill="#FFF4D6"/>
<path d="M22.6666 2.66675H9.33329C7.56518 2.66675 5.86949 3.36913 4.61925 4.61937C3.369 5.86961 2.66663 7.5653 2.66663 9.33341V22.6667C2.66663 24.4349 3.369 26.1305 4.61925 27.3808C5.86949 28.631 7.56518 29.3334 9.33329 29.3334H22.6666C24.4347 29.3334 26.1304 28.631 27.3807 27.3808C28.6309 26.1305 29.3333 24.4349 29.3333 22.6667V9.33341C29.3333 7.5653 28.6309 5.86961 27.3807 4.61937C26.1304 3.36913 24.4347 2.66675 22.6666 2.66675ZM19.32 22.3734H17.24C17.157 22.3849 17.0728 22.3634 17.0055 22.3136C16.9382 22.2637 16.8931 22.1895 16.88 22.1067C16.6266 21.3601 16.36 20.6134 16.1066 19.8534C16.0986 19.8058 16.0812 19.7602 16.0552 19.7195C16.0292 19.6787 15.9953 19.6436 15.9555 19.6162C15.9157 19.5889 15.8708 19.5698 15.8234 19.5601C15.7761 19.5505 15.7273 19.5505 15.68 19.5601H12.1333C12.084 19.5485 12.0329 19.5474 11.9832 19.5568C11.9335 19.5663 11.8863 19.5862 11.8448 19.6151C11.8033 19.6441 11.7683 19.6814 11.7422 19.7248C11.7161 19.7681 11.6994 19.8165 11.6933 19.8667C11.4666 20.6134 11.2133 21.3334 10.9866 22.0801C10.9803 22.1272 10.9643 22.1725 10.9397 22.2132C10.9151 22.2539 10.8825 22.289 10.8437 22.3165C10.8049 22.3441 10.7609 22.3633 10.7144 22.3731C10.6679 22.3829 10.6199 22.383 10.5733 22.3734H8.74663C8.42663 22.3734 8.39996 22.3734 8.50663 22.0401L11.3866 13.7334C11.6533 12.9734 11.92 12.2134 12.16 11.4534C12.2259 11.228 12.2618 10.9949 12.2666 10.7601C12.2666 10.4801 12.3733 10.4134 12.6266 10.4267H15.1733C15.36 10.4267 15.4533 10.4267 15.52 10.6801L18.8 19.9201C19.0533 20.6401 19.3066 21.3467 19.5466 22.0534C19.6533 22.3467 19.64 22.3734 19.32 22.3734ZM23.4 22.1467C23.4 22.3734 23.3066 22.4401 23.0933 22.4401H21.1733C20.9066 22.4401 20.84 22.3334 20.84 22.0934V13.7201C20.84 13.4534 20.92 13.3467 21.2 13.3601H23.08C23.2933 13.3601 23.4 13.3601 23.4 13.6534C23.3911 16.4801 23.3911 19.3112 23.4 22.1467ZM22.0666 12.4134C21.8756 12.4255 21.6842 12.3964 21.5054 12.3279C21.3266 12.2595 21.1646 12.1533 21.0306 12.0167C20.8965 11.8801 20.7934 11.7162 20.7283 11.5362C20.6632 11.3561 20.6376 11.1642 20.6533 10.9734C20.655 10.7838 20.6945 10.5964 20.7695 10.4222C20.8444 10.248 20.9534 10.0905 21.0899 9.95887C21.2265 9.82728 21.3879 9.72423 21.5648 9.65576C21.7417 9.58728 21.9304 9.55476 22.12 9.56008C22.3044 9.55949 22.487 9.59717 22.6561 9.67075C22.8252 9.74432 22.9773 9.85219 23.1026 9.98753C23.2279 10.1229 23.3238 10.2827 23.3841 10.457C23.4445 10.6313 23.468 10.8162 23.4533 11.0001C23.4642 11.1818 23.4378 11.3638 23.3757 11.5349C23.3136 11.706 23.2171 11.8626 23.0922 11.995C22.9673 12.1275 22.8166 12.2329 22.6494 12.3048C22.4822 12.3768 22.302 12.4137 22.12 12.4134H22.0666Z" fill="#FFF4D6"/>
<path d="M15.3066 17.2266H12.48C12.96 15.6799 13.4133 14.1599 13.8133 12.6399C14.3466 14.1599 14.8266 15.6799 15.3066 17.2266Z" fill="#FFF4D6"/>
</svg>
