<svg width="16" height="16" viewBox="0 0 16 16" fill="none" xmlns="http://www.w3.org/2000/svg">
<path d="M5.20001 1.33325H10.8C12.9333 1.33325 14.6667 3.06659 14.6667 5.19992V10.7999C14.6667 11.8254 14.2593 12.8089 13.5342 13.5341C12.809 14.2592 11.8255 14.6666 10.8 14.6666H5.20001C3.06668 14.6666 1.33334 12.9333 1.33334 10.7999V5.19992C1.33334 4.17441 1.74072 3.19091 2.46586 2.46577C3.191 1.74063 4.17451 1.33325 5.20001 1.33325ZM5.06668 2.66659C4.43016 2.66659 3.81971 2.91944 3.36962 3.36953C2.91953 3.81962 2.66668 4.43007 2.66668 5.06659V10.9333C2.66668 12.2599 3.74001 13.3333 5.06668 13.3333H10.9333C11.5699 13.3333 12.1803 13.0804 12.6304 12.6303C13.0805 12.1802 13.3333 11.5698 13.3333 10.9333V5.06659C13.3333 3.73992 12.26 2.66659 10.9333 2.66659H5.06668ZM11.5 3.66659C11.721 3.66659 11.933 3.75438 12.0893 3.91066C12.2455 4.06694 12.3333 4.2789 12.3333 4.49992C12.3333 4.72093 12.2455 4.93289 12.0893 5.08917C11.933 5.24545 11.721 5.33325 11.5 5.33325C11.279 5.33325 11.067 5.24545 10.9108 5.08917C10.7545 4.93289 10.6667 4.72093 10.6667 4.49992C10.6667 4.2789 10.7545 4.06694 10.9108 3.91066C11.067 3.75438 11.279 3.66659 11.5 3.66659ZM8.00001 4.66658C8.88406 4.66659 9.73191 5.01777 10.357 5.6429C10.9822 6.26802 11.3333 7.11586 11.3333 7.99992C11.3333 8.88397 10.9822 9.73182 10.357 10.3569C9.73191 10.9821 8.88406 11.3333 8.00001 11.3333C7.11595 11.3333 6.26811 10.9821 5.64299 10.3569C5.01787 9.73182 4.66668 8.88397 4.66668 7.99992C4.66668 7.11586 5.01787 6.26802 5.64299 5.6429C6.26811 5.01777 7.11595 4.66659 8.00001 4.66658ZM8.00001 5.99992C7.46958 5.99992 6.96087 6.21063 6.5858 6.5857C6.21072 6.96078 6.00001 7.46949 6.00001 7.99992C6.00001 8.53035 6.21072 9.03906 6.5858 9.41413C6.96087 9.7892 7.46958 9.99992 8.00001 9.99992C8.53044 9.99992 9.03915 9.7892 9.41422 9.41413C9.7893 9.03906 10 8.53035 10 7.99992C10 7.46949 9.7893 6.96078 9.41422 6.5857C9.03915 6.21063 8.53044 5.99992 8.00001 5.99992Z" fill="#AEA790"/>
</svg>
