<svg width="32" height="32" viewBox="0 0 32 32" fill="none" xmlns="http://www.w3.org/2000/svg">
<path d="M10 20C9.44444 20 8.97244 19.8058 8.584 19.4173C8.19556 19.0289 8.00089 18.5564 8 18V16.6667H10V18H12V12H14V18C14 18.5556 13.8058 19.028 13.4173 19.4173C13.0289 19.8067 12.5564 20.0009 12 20H10ZM17.3333 20C16.9556 20 16.6391 19.872 16.384 19.616C16.1289 19.36 16.0009 19.0436 16 18.6667V17.3333H18V18H20.6667V16.6667H17.3333C16.9556 16.6667 16.6391 16.5387 16.384 16.2827C16.1289 16.0267 16.0009 15.7102 16 15.3333V13.3333C16 12.9556 16.128 12.6391 16.384 12.384C16.64 12.1289 16.9564 12.0009 17.3333 12H21.3333C21.7111 12 22.028 12.128 22.284 12.384C22.54 12.64 22.6676 12.9564 22.6667 13.3333V14.6667H20.6667V14H18V15.3333H21.3333C21.7111 15.3333 22.028 15.4613 22.284 15.7173C22.54 15.9733 22.6676 16.2898 22.6667 16.6667V18.6667C22.6667 19.0444 22.5387 19.3613 22.2827 19.6173C22.0267 19.8733 21.7102 20.0009 21.3333 20H17.3333Z" fill="#FFF4D6"/>
</svg>
