<svg width="16" height="16" viewBox="0 0 16 16" fill="none" xmlns="http://www.w3.org/2000/svg">
<path d="M8 9.99992C8.54 9.99992 9 9.79992 9.40667 9.40659C9.8 8.99992 10 8.53992 10 7.99992C10 7.45992 9.8 6.99992 9.40667 6.59325C9 6.19992 8.54 5.99992 8 5.99992C7.46 5.99992 7 6.19992 6.59333 6.59325C6.2 6.99992 6 7.45992 6 7.99992C6 8.53992 6.2 8.99992 6.59333 9.40659C7 9.79992 7.46 9.99992 8 9.99992ZM8 1.33325C9.83333 1.33325 11.4 1.99992 12.7 3.29992C14 4.59992 14.6667 6.16659 14.6667 7.99992V8.96659C14.6667 9.63325 14.4333 10.1999 14 10.6666C13.5333 11.1133 13 11.3333 12.3333 11.3333C11.5333 11.3333 10.8733 10.9999 10.3733 10.3333C9.70667 10.9999 8.92 11.3333 8 11.3333C7.08667 11.3333 6.3 10.9999 5.64 10.3599C5 9.69992 4.66667 8.91992 4.66667 7.99992C4.66667 7.08659 5 6.29992 5.64 5.63992C6.3 4.99992 7.08667 4.66659 8 4.66659C8.92 4.66659 9.7 4.99992 10.36 5.63992C11 6.29992 11.3333 7.08659 11.3333 7.99992V8.96659C11.3333 9.23992 11.44 9.47992 11.64 9.68659C11.84 9.89325 12.0733 9.99992 12.3333 9.99992C12.6133 9.99992 12.8467 9.89325 13.0467 9.68659C13.2467 9.47992 13.3333 9.23992 13.3333 8.96659V7.99992C13.3333 6.53992 12.82 5.28659 11.7667 4.23325C10.7133 3.17992 9.46 2.66659 8 2.66659C6.54 2.66659 5.28667 3.17992 4.23333 4.23325C3.18 5.28659 2.66667 6.53992 2.66667 7.99992C2.66667 9.45992 3.18 10.7133 4.23333 11.7666C5.28667 12.8199 6.54 13.3333 8 13.3333H11.3333V14.6666H8C6.16667 14.6666 4.6 13.9999 3.3 12.6999C2 11.3999 1.33333 9.83325 1.33333 7.99992C1.33333 6.16659 2 4.59992 3.3 3.29992C4.6 1.99992 6.16667 1.33325 8 1.33325Z" fill="#AEA790"/>
</svg>
