<svg width="32" height="32" viewBox="0 0 32 32" fill="none" xmlns="http://www.w3.org/2000/svg">
<g clip-path="url(#clip0_26_492)">
<path d="M16 31.9414C15.544 31.9414 15.12 31.8227 14.724 31.6174L10.6854 29.3001C10.0787 28.9774 10.3827 28.8601 10.5654 28.8014C11.384 28.5374 11.536 28.4787 12.3867 28.0081C12.4774 27.9494 12.6 27.9787 12.6907 28.0374L15.788 29.8281C15.908 29.8867 16.0614 29.8867 16.152 29.8281L28.268 23.0494C28.388 22.9907 28.4494 22.8734 28.4494 22.7267V9.19872C28.4494 9.05205 28.3894 8.93472 28.268 8.87605L16.152 2.12805C16.0307 2.06939 15.8787 2.06939 15.788 2.12805L3.67204 8.87605C3.55071 8.93472 3.48937 9.08139 3.48937 9.19872V22.7267C3.48937 22.8441 3.55071 22.9907 3.67204 23.0494L6.98137 24.8987C8.77337 25.7787 9.89604 24.7521 9.89604 23.7254V10.3734C9.89604 10.1974 10.048 10.0214 10.2614 10.0214H11.8094C11.992 10.0214 12.1734 10.1681 12.1734 10.3734V23.7241C12.1734 26.0427 10.868 27.3921 8.59071 27.3921C7.89204 27.3921 7.34537 27.3921 5.79737 26.6587L2.60937 24.8987C2.22549 24.6872 1.90492 24.3771 1.68065 24.0005C1.45638 23.6239 1.33651 23.1944 1.33337 22.7561V9.22805C1.33337 8.34805 1.81871 7.52672 2.60937 7.08672L14.7254 0.306721C15.12 0.104961 15.5568 -0.000244141 16 -0.000244141C16.4432 -0.000244141 16.8801 0.104961 17.2747 0.306721L29.392 7.08539C30.1814 7.52539 30.6667 8.34672 30.6667 9.22672V22.7547C30.6667 23.6347 30.1814 24.4561 29.392 24.8974L17.276 31.6747C16.8733 31.8493 16.439 31.9392 16 31.9387M19.7347 22.6361C14.4214 22.6361 13.328 20.2894 13.328 18.2934C13.328 18.1174 13.48 17.9414 13.692 17.9414H15.2707C15.4534 17.9414 15.604 18.0587 15.604 18.2347C15.848 19.7894 16.5467 20.5521 19.7654 20.5521C22.316 20.5521 23.4094 19.9947 23.4094 18.6747C23.4094 17.9121 23.1054 17.3547 19.128 16.9734C15.8174 16.6494 13.7534 15.9467 13.7534 13.3934C13.7534 11.0161 15.8174 9.60672 19.28 9.60672C23.1667 9.60672 25.08 10.8987 25.3227 13.7161C25.3197 13.8114 25.2876 13.9035 25.2307 13.9801C25.1707 14.0387 25.08 14.0974 24.988 14.0974H23.4094C23.3327 14.0955 23.2587 14.0688 23.1986 14.0211C23.1384 13.9735 23.0954 13.9076 23.076 13.8334C22.7107 12.2201 21.7694 11.6907 19.28 11.6907C16.4854 11.6907 16.152 12.6294 16.152 13.3347C16.152 14.1854 16.5467 14.4494 20.312 14.9187C24.0467 15.3881 25.808 16.0627 25.808 18.5854C25.7774 21.1694 23.592 22.6361 19.7347 22.6361Z" fill="#FFF4D6"/>
</g>
<defs>
<clipPath id="clip0_26_492">
<rect width="32" height="32" fill="white"/>
</clipPath>
</defs>
</svg>
