<svg width="32" height="32" viewBox="0 0 32 32" fill="none" xmlns="http://www.w3.org/2000/svg">
<path d="M13.9333 13.9733C13.9535 14.3782 13.8311 14.7773 13.5875 15.1013C13.3439 15.4252 12.9945 15.6536 12.6 15.7466C11.9039 15.9522 11.178 16.0379 10.4533 16C10.2666 16 10.2533 15.88 10.2533 15.7466V12.3466C10.2533 12.2533 10.3466 12.0933 10.4 12.0933C11.1627 12.0079 11.9345 12.0576 12.68 12.24C13.0551 12.3428 13.3839 12.5707 13.6119 12.8859C13.8398 13.2012 13.9532 13.5848 13.9333 13.9733Z" fill="#FFF4D6"/>
<path d="M22.6666 2.66675H9.33329C7.56518 2.66675 5.86949 3.36913 4.61925 4.61937C3.369 5.86961 2.66663 7.5653 2.66663 9.33341V22.6667C2.66663 24.4349 3.369 26.1305 4.61925 27.3808C5.86949 28.631 7.56518 29.3334 9.33329 29.3334H22.6666C24.4347 29.3334 26.1304 28.631 27.3807 27.3808C28.6309 26.1305 29.3333 24.4349 29.3333 22.6667V9.33341C29.3333 7.5653 28.6309 5.86961 27.3807 4.61937C26.1304 3.36913 24.4347 2.66675 22.6666 2.66675ZM14.6666 17.3334C13.9937 17.7608 13.2225 18.0087 12.4266 18.0534H10.64C10.2666 18.0534 10.2666 18.0534 10.2666 18.4134V21.5067C10.2666 21.7734 10.1866 21.8534 9.91996 21.8534H8.15996C7.90663 21.8534 7.83996 21.7601 7.83996 21.5201V10.2801C7.83996 10.0134 7.83996 9.93341 8.17329 9.93341H12.3466C13.1084 9.95406 13.8521 10.1698 14.5066 10.5601C15.0719 10.8786 15.5425 11.3414 15.8705 11.9012C16.1984 12.4611 16.3719 13.0979 16.3733 13.7467C16.4504 14.4441 16.3316 15.1492 16.0301 15.7828C15.7286 16.4164 15.2564 16.9534 14.6666 17.3334ZM22.56 21.7334C21.4004 22.1852 20.1309 22.2735 18.92 21.9867C18.5564 21.9067 18.2008 21.8001 17.8533 21.6667C17.7997 21.6416 17.7526 21.6045 17.7156 21.5582C17.6786 21.512 17.6527 21.4579 17.64 21.4001V19.3867C18.0666 19.5467 18.4666 19.7334 18.88 19.8667C19.5727 20.0881 20.3061 20.1519 21.0266 20.0534C21.1706 20.0267 21.3084 19.9823 21.44 19.9201C21.5181 19.8859 21.586 19.832 21.6371 19.7637C21.6882 19.6953 21.7207 19.6149 21.7315 19.5303C21.7422 19.4457 21.7308 19.3597 21.6984 19.2808C21.666 19.2019 21.6137 19.1327 21.5466 19.0801C21.2416 18.8689 20.9154 18.6902 20.5733 18.5467C20.0266 18.2801 19.4666 18.0667 18.9466 17.7601C18.4771 17.5317 18.0938 17.1579 17.8536 16.6943C17.6134 16.2307 17.5291 15.702 17.6133 15.1867C17.6811 14.6908 17.8871 14.224 18.2078 13.8396C18.5285 13.4553 18.9509 13.169 19.4266 13.0134C20.2841 12.7234 21.1991 12.6457 22.0933 12.7867C22.52 12.7867 22.9333 12.9467 23.36 13.0267C23.5866 13.0267 23.6666 13.2134 23.6533 13.4401V15.0001C23.6533 15.2934 23.5866 15.3201 23.32 15.2134C22.4872 14.8279 21.5667 14.6714 20.6533 14.7601C20.5239 14.7751 20.3978 14.8112 20.28 14.8667C20.2 14.8982 20.1296 14.9499 20.0757 15.0169C20.0219 15.0839 19.9865 15.1637 19.973 15.2486C19.9596 15.3335 19.9685 15.4204 19.9989 15.5008C20.0294 15.5811 20.0803 15.6521 20.1466 15.7067C20.5324 15.9636 20.9368 16.1859 21.36 16.3734C21.8666 16.6267 22.4 16.8267 22.8933 17.1067C23.3409 17.3105 23.7118 17.6519 23.9516 18.0813C24.1915 18.5106 24.2879 19.0054 24.2266 19.4934C24.1845 19.9802 24.0039 20.4448 23.7062 20.8323C23.4085 21.2198 23.0061 21.5139 22.5466 21.6801L22.56 21.7334Z" fill="#FFF4D6"/>
</svg>
