<svg width="32" height="32" viewBox="0 0 32 32" fill="none" xmlns="http://www.w3.org/2000/svg">
<path d="M16 13.48C17.3734 13.48 18.4934 14.6 18.4934 16C18.4934 17.3333 17.3734 18.4666 16 18.4666C14.6267 18.4666 13.5067 17.3333 13.5067 16C13.5067 14.6 14.6267 13.48 16 13.48ZM9.82669 26.6666C10.6667 27.1733 12.5067 26.4 14.6267 24.4C13.9334 23.6133 13.2534 22.76 12.6134 21.8666C11.539 21.763 10.4708 21.6028 9.41335 21.3866C8.73335 24.24 8.98669 26.2 9.82669 26.6666ZM10.7734 19.0133L10.3867 18.3333C10.24 18.72 10.0934 19.1066 10 19.48C10.36 19.56 10.76 19.6266 11.1734 19.6933L10.7734 19.0133ZM19.4934 18L20.5734 16L19.4934 14C19.0934 13.2933 18.6667 12.6666 18.28 12.04C17.56 12 16.8 12 16 12C15.2 12 14.44 12 13.72 12.04C13.3334 12.6666 12.9067 13.2933 12.5067 14L11.4267 16L12.5067 18C12.9067 18.7066 13.3334 19.3333 13.72 19.96C14.44 20 15.2 20 16 20C16.8 20 17.56 20 18.28 19.96C18.6667 19.3333 19.0934 18.7066 19.4934 18ZM16 9.03996C15.7467 9.33329 15.48 9.63996 15.2134 9.99996H16.7867C16.52 9.63996 16.2534 9.33329 16 9.03996ZM16 22.96C16.2534 22.6666 16.52 22.36 16.7867 22H15.2134C15.48 22.36 15.7467 22.6666 16 22.96ZM22.16 5.33329C21.3334 4.82662 19.4934 5.59996 17.3734 7.59996C18.0667 8.38662 18.7467 9.23996 19.3867 10.1333C20.48 10.24 21.56 10.4 22.5867 10.6133C23.2667 7.75996 23.0134 5.79996 22.16 5.33329ZM21.2267 12.9866L21.6134 13.6666C21.76 13.28 21.9067 12.8933 22 12.52C21.64 12.44 21.24 12.3733 20.8267 12.3066L21.2267 12.9866ZM23.16 3.58662C25.12 4.70662 25.3334 7.65329 24.5067 11.0933C27.8934 12.0933 30.3334 13.7466 30.3334 16C30.3334 18.2533 27.8934 19.9066 24.5067 20.9066C25.3334 24.3466 25.12 27.2933 23.16 28.4133C21.2134 29.5333 18.56 28.2533 16 25.8133C13.44 28.2533 10.7867 29.5333 8.82669 28.4133C6.88002 27.2933 6.66669 24.3466 7.49335 20.9066C4.10669 19.9066 1.66669 18.2533 1.66669 16C1.66669 13.7466 4.10669 12.0933 7.49335 11.0933C6.66669 7.65329 6.88002 4.70662 8.82669 3.58662C10.7867 2.46662 13.44 3.74662 16 6.18662C18.56 3.74662 21.2134 2.46662 23.16 3.58662ZM22.7734 16C23.2267 17 23.6267 18 23.96 19.0133C26.76 18.1733 28.3334 16.9733 28.3334 16C28.3334 15.0266 26.76 13.8266 23.96 12.9866C23.6267 14 23.2267 15 22.7734 16ZM9.22669 16C8.77335 15 8.37335 14 8.04002 12.9866C5.24002 13.8266 3.66669 15.0266 3.66669 16C3.66669 16.9733 5.24002 18.1733 8.04002 19.0133C8.37335 18 8.77335 17 9.22669 16ZM21.2267 19.0133L20.8267 19.6933C21.24 19.6266 21.64 19.56 22 19.48C21.9067 19.1066 21.76 18.72 21.6134 18.3333L21.2267 19.0133ZM17.3734 24.4C19.4934 26.4 21.3334 27.1733 22.16 26.6666C23.0134 26.2 23.2667 24.24 22.5867 21.3866C21.56 21.6 20.48 21.76 19.3867 21.8666C18.7467 22.76 18.0667 23.6133 17.3734 24.4ZM10.7734 12.9866L11.1734 12.3066C10.76 12.3733 10.36 12.44 10 12.52C10.0934 12.8933 10.24 13.28 10.3867 13.6666L10.7734 12.9866ZM14.6267 7.59996C12.5067 5.59996 10.6667 4.82662 9.82669 5.33329C8.98669 5.79996 8.73335 7.75996 9.41335 10.6133C10.4708 10.3971 11.539 10.2369 12.6134 10.1333C13.2534 9.23996 13.9334 8.38662 14.6267 7.59996Z" fill="#FFF4D6"/>
</svg>
