<svg width="24" height="24" viewBox="0 0 24 24" fill="none" xmlns="http://www.w3.org/2000/svg">
<path fill-rule="evenodd" clip-rule="evenodd" d="M3.82054 3L12.004 12.3338L20.1875 3V20.1948H20.1885C20.1885 20.5564 20.551 20.85 21 20.8536V21H17.2298V20.8536C17.6741 20.8536 18.0357 20.5697 18.0493 20.2155V12.6827L12.004 19.4045L5.95871 12.6827V20.1993C5.96168 20.561 6.3276 20.8536 6.77856 20.8536V21H3V20.8536C3.4528 20.8536 3.81986 20.5587 3.81986 20.1948H3.82054V3ZM12.004 16.6463L18.0493 9.75123V8.37022L12.004 15.0921L5.95871 8.37022V9.75123L12.004 16.6463Z" fill="#ffffff"/>
</svg>
