<svg width="32" height="32" viewBox="0 0 32 32" fill="none" xmlns="http://www.w3.org/2000/svg">
<path d="M12.32 25.3801C11.1187 24.2787 10.768 21.9654 11.268 20.2881C12.1347 21.3454 13.3373 21.6801 14.5827 21.8694C16.5027 22.1601 18.3907 22.0521 20.176 21.1707C20.38 21.0694 20.5693 20.9347 20.792 20.8001C20.96 21.2867 21.004 21.7787 20.9453 22.2801C20.8027 23.5001 20.1987 24.4427 19.2347 25.1574C18.8493 25.4441 18.4427 25.6987 18.0453 25.9681C16.824 26.7974 16.4933 27.7681 16.952 29.1814L16.9973 29.3334C16.41 29.0774 15.913 28.651 15.5707 28.1094C15.2129 27.552 15.0222 26.9038 15.0213 26.2414C15.0173 25.9107 15.0173 25.5787 14.9733 25.2547C14.8653 24.4614 14.4933 24.1081 13.796 24.0867C13.4613 24.0678 13.1311 24.1714 12.8673 24.3783C12.6035 24.5852 12.4241 24.8811 12.3627 25.2107C12.3511 25.2623 12.3365 25.3183 12.3187 25.3787M5.46667 20.0094C5.46667 20.0094 9.02134 18.2721 12.5867 18.2721L15.2747 9.92541C15.3747 9.52008 15.6693 9.24541 16 9.24541C16.3333 9.24541 16.6267 9.52008 16.7267 9.92541L19.4147 18.2721C23.6373 18.2721 26.5347 20.0094 26.5347 20.0094L20.484 3.46941C20.3107 2.98141 20.0173 2.66675 19.624 2.66675H12.3773C11.9827 2.66675 11.7027 2.98141 11.5173 3.46941C11.504 3.50141 5.46667 20.0094 5.46667 20.0094Z" fill="#FFF4D6"/>
</svg>
