<svg width="32" height="32" viewBox="0 0 32 32" fill="none" xmlns="http://www.w3.org/2000/svg">
<path d="M31.6674 24.6099C30.5274 24.8999 29.8225 24.6224 29.19 23.6724C27.77 21.5449 26.2025 19.5149 24.69 17.4474C24.495 17.1799 24.2925 16.9174 24.04 16.5849C22.25 18.9999 20.4625 21.2999 18.785 23.6924C18.185 24.5474 17.5549 24.9199 16.4349 24.6174L23.165 15.5849L16.9 7.42742C17.9775 7.21742 18.7225 7.32492 19.3825 8.28992C20.84 10.4199 22.4474 12.4474 24.0499 14.5924C25.6624 12.4549 27.25 10.4249 28.75 8.31492C29.3525 7.45992 30 7.13492 31.0825 7.44992C30.2625 8.53742 29.46 9.60742 28.6525 10.6699C27.5625 12.1024 26.4924 13.5524 25.3624 14.9549C24.9599 15.4549 25.025 15.7799 25.385 16.2524C27.475 18.9999 29.5399 21.7749 31.6674 24.6099ZM0.332451 15.4349C0.512451 14.5324 0.632451 13.6124 0.882451 12.7274C2.38245 7.36992 8.53245 5.14242 12.7575 8.46242C15.2325 10.4099 15.8475 13.1549 15.725 16.2499H1.77495C1.56495 21.8024 5.56245 25.1549 10.6575 23.4449C12.445 22.8449 13.4975 21.4449 14.025 19.6949C14.2925 18.8174 14.735 18.6799 15.56 18.9299C15.1375 21.1199 14.18 22.9499 12.18 24.0949C9.17995 25.8099 4.89745 25.2549 2.64495 22.8724C1.31495 21.4724 0.749951 19.7299 0.499951 17.8474C0.462451 17.5474 0.384951 17.2524 0.324951 16.9549C0.329951 16.4483 0.332451 15.9416 0.332451 15.4349ZM1.79995 15.0624H14.4075C14.325 11.0474 11.825 8.19492 8.40745 8.16992C4.65745 8.13992 1.96245 10.9249 1.79995 15.0624Z" fill="#FFF4D6"/>
</svg>
