<svg width="32" height="32" viewBox="0 0 32 32" fill="none" xmlns="http://www.w3.org/2000/svg">
<path d="M18.32 5.64012C17.5195 4.6861 16.7576 3.70042 16.036 2.68545C16.0319 2.67967 16.0265 2.67496 16.0202 2.6717C16.014 2.66845 16.007 2.66675 16 2.66675C15.9929 2.66675 15.9859 2.66845 15.9797 2.6717C15.9734 2.67496 15.968 2.67967 15.964 2.68545C15.2424 3.70087 14.4804 4.68699 13.68 5.64145C4.06397 17.8908 15.1973 26.1548 15.1973 26.1548L15.2866 26.2174C15.372 27.4961 15.5813 29.3334 15.5813 29.3334H16.4186C16.4186 29.3334 16.628 27.5041 16.712 26.2268L16.804 26.1548C16.804 26.1548 27.936 17.8908 18.3213 5.64145M16 25.9761C16 25.9761 15.5013 25.5495 15.3666 25.3361L15.3653 25.3148L15.9693 11.9788C15.9708 11.9716 15.9747 11.9651 15.9804 11.9605C15.9861 11.9558 15.9933 11.9533 16.0006 11.9533C16.008 11.9533 16.0151 11.9558 16.0208 11.9605C16.0265 11.9651 16.0305 11.9716 16.032 11.9788L16.6346 25.3148V25.3374C16.5 25.5508 16 25.9761 16 25.9761Z" fill="#FFF4D6"/>
</svg>
