<svg width="32" height="32" viewBox="0 0 32 32" fill="none" xmlns="http://www.w3.org/2000/svg">
<path d="M21.8733 7.33467C21.72 7.33467 21.616 7.35334 21.508 7.37867V7.39601H21.5267C21.5987 7.53467 21.7213 7.63601 21.812 7.76001C21.884 7.90268 21.9453 8.04534 22.0173 8.18667L22.036 8.16668C22.1613 8.07868 22.2227 7.93734 22.2227 7.72267C22.1693 7.66001 22.1613 7.59734 22.116 7.53601C22.0627 7.44667 21.948 7.40267 21.876 7.33201L21.8733 7.33467ZM7.69333 24.9267H6.45733C6.42233 22.9624 6.30222 21.0006 6.09733 19.0467H6.08667L4.20667 24.9267H3.26667L1.4 19.0467H1.38667C1.24075 21.0036 1.15404 22.9645 1.12667 24.9267H0C0.0737778 22.3045 0.256 19.8467 0.546667 17.5533H2.08L3.86 22.972H3.87067L5.66667 17.5533H7.12667C7.44933 20.2413 7.63956 22.6991 7.69733 24.9267H7.69333ZM13.0493 19.4867C12.5453 22.2147 11.8822 24.1969 11.06 25.4333C10.4173 26.388 9.71378 26.8649 8.94933 26.864C8.74667 26.864 8.49511 26.8027 8.19467 26.68V26.0213C8.34222 26.0445 8.51378 26.056 8.70933 26.056C9.06667 26.056 9.35422 25.9573 9.572 25.76C9.83422 25.52 9.96533 25.2511 9.96533 24.9533C9.96533 24.7462 9.86311 24.3267 9.65867 23.6947L8.30667 19.4867H9.52L10.4893 22.6333C10.7089 23.348 10.8 23.8471 10.7627 24.1307C11.296 22.7102 11.6671 21.1622 11.876 19.4867H13.0493ZM29.4827 24.9267H25.976V17.5533H27.156V24.02H29.4827V24.9267ZM25.056 25.1067L23.7013 24.44C23.8222 24.3396 23.9356 24.2285 24.0413 24.1067C24.6182 23.4311 24.9062 22.4298 24.9053 21.1027C24.9053 18.6627 23.9476 17.4422 22.032 17.4413C21.0933 17.4413 20.36 17.7511 19.832 18.3707C19.2578 19.048 18.9707 20.0458 18.9707 21.364C18.9698 22.6609 19.2249 23.612 19.736 24.2173C20.2018 24.764 20.9053 25.0373 21.8467 25.0373C22.1987 25.0373 22.5209 24.9938 22.8133 24.9067L24.58 25.936L25.06 25.1067H25.056ZM20.6667 23.4507C20.3671 22.9698 20.2173 22.1982 20.2173 21.136C20.2173 19.2782 20.7818 18.3493 21.9107 18.3493C22.5027 18.3493 22.9369 18.5716 23.2133 19.016C23.512 19.4987 23.6613 20.2645 23.6613 21.3133C23.6613 23.1862 23.0969 24.1231 21.968 24.124C21.3751 24.124 20.9404 23.9018 20.664 23.4573L20.6667 23.4507ZM18.456 22.884C18.456 23.5116 18.2267 24.0253 17.768 24.4253C17.3111 24.8253 16.696 25.0253 15.9227 25.0253C15.1987 25.0253 14.504 24.796 13.8253 24.3387L14.1413 23.704C14.7244 23.9965 15.2533 24.1422 15.728 24.1413C16.1707 24.1413 16.5187 24.0436 16.772 23.848C16.8989 23.7529 17.0014 23.6289 17.071 23.4863C17.1405 23.3437 17.1751 23.1866 17.172 23.028C17.172 22.588 16.8653 22.2147 16.308 21.9013C15.7907 21.6173 14.7573 21.0253 14.7573 21.0253C14.1947 20.616 13.9147 20.1773 13.9147 19.456C13.9147 18.8569 14.1236 18.3747 14.5413 18.0093C14.96 17.6396 15.5022 17.4551 16.168 17.456C16.8516 17.456 17.4738 17.6382 18.0347 18.0027L17.7507 18.6373C17.3035 18.4399 16.8208 18.3355 16.332 18.3307C15.9542 18.3307 15.6636 18.4222 15.46 18.6053C15.3575 18.6908 15.2748 18.7976 15.2177 18.9183C15.1606 19.0389 15.1305 19.1705 15.1293 19.304C15.1293 19.7413 15.4413 20.1173 16.0173 20.4373C16.5413 20.724 17.6 21.3307 17.6 21.3307C18.1773 21.7373 18.464 22.1707 18.464 22.888L18.456 22.884ZM30.9653 15.0813C30.252 15.0627 29.6987 15.1347 29.236 15.332C29.1027 15.3853 28.8893 15.3853 28.8707 15.5547C28.944 15.6253 28.9547 15.7413 29.0173 15.84C29.124 16.0187 29.308 16.2573 29.4787 16.3827C29.6636 16.5311 29.8533 16.6689 30.048 16.796C30.3947 17.0093 30.788 17.136 31.128 17.3507C31.3213 17.476 31.5187 17.6347 31.7147 17.768C31.812 17.8347 31.8747 17.9547 32 17.9973V17.9707C31.9387 17.8907 31.92 17.7747 31.86 17.6853C31.7707 17.596 31.6813 17.516 31.5933 17.428C31.3319 17.0827 31.0194 16.7792 30.6667 16.528C30.3813 16.3333 29.7573 16.0613 29.64 15.7347L29.6227 15.716C29.8173 15.6987 30.0493 15.628 30.236 15.5747C30.5387 15.4947 30.816 15.512 31.1293 15.4333C31.2716 15.396 31.4138 15.3542 31.556 15.308V15.228C31.396 15.068 31.276 14.8507 31.1107 14.7013C30.6487 14.2985 30.1566 13.9317 29.6387 13.604C29.3587 13.4253 29.004 13.3107 28.7093 13.1587C28.6027 13.1053 28.424 13.0787 28.3627 12.9893C28.2027 12.7947 28.1093 12.536 27.996 12.304C27.7345 11.796 27.4912 11.2787 27.2667 10.7533C27.1067 10.404 27.0093 10.056 26.8133 9.73601C25.8933 8.22001 24.8973 7.30134 23.3653 6.40267C23.036 6.21601 22.6413 6.13601 22.224 6.03734C22.0013 6.02667 21.7787 6.01067 21.5573 6.00134C21.4107 5.93867 21.2693 5.76934 21.144 5.68801C20.6373 5.36801 19.3253 4.67467 18.952 5.59201C18.712 6.17067 19.308 6.74134 19.5147 7.03467C19.668 7.23867 19.8613 7.47201 19.968 7.70134C20.0307 7.85601 20.048 8.01467 20.1107 8.17601C20.252 8.56801 20.3867 9.00534 20.5733 9.37201C20.6707 9.55867 20.7773 9.75467 20.9027 9.92267C20.9747 10.02 21.0973 10.0653 21.1253 10.2253C21 10.4067 20.992 10.6707 20.92 10.892C20.6 11.9013 20.7253 13.1493 21.1787 13.892C21.3213 14.1133 21.6613 14.604 22.116 14.416C22.516 14.256 22.428 13.7493 22.5427 13.3027C22.5693 13.196 22.552 13.1253 22.6067 13.0533V13.0733C22.732 13.324 22.8573 13.5627 22.972 13.8133C23.2467 14.2507 23.7267 14.704 24.128 15.0067C24.3413 15.1667 24.5107 15.444 24.7773 15.5427V15.516H24.7573C24.7 15.4387 24.624 15.4013 24.552 15.3387C24.3832 15.173 24.2271 14.9947 24.0853 14.8053C23.7108 14.2913 23.3778 13.7482 23.0893 13.1813C22.9427 12.9013 22.82 12.6 22.7027 12.324C22.6493 12.2173 22.6493 12.0573 22.56 12.004C22.4267 12.1987 22.2307 12.368 22.1333 12.608C21.964 12.992 21.9467 13.464 21.8827 13.9547C21.8467 13.964 21.864 13.9547 21.8467 13.9733C21.5613 13.904 21.464 13.608 21.3573 13.36C21.0907 12.7267 21.0467 11.7093 21.2773 10.98C21.34 10.7933 21.6067 10.204 21.5 10.0253C21.444 9.85601 21.268 9.75868 21.1707 9.62134C21.0456 9.4425 20.9384 9.2518 20.8507 9.05201C20.6373 8.55334 20.5307 8.00134 20.2987 7.50267C20.192 7.27201 20.0053 7.03067 19.8533 6.81867C19.684 6.57867 19.4973 6.40934 19.3627 6.12534C19.3187 6.02801 19.256 5.86668 19.3267 5.76001C19.3453 5.68801 19.3827 5.66001 19.452 5.64001C19.5693 5.54401 19.8987 5.66934 20.0147 5.72267C20.344 5.85601 20.6213 5.98134 20.8973 6.16801C21.0227 6.25601 21.1573 6.42534 21.3173 6.46934H21.504C21.7893 6.53201 22.1107 6.48801 22.3773 6.56668C22.8507 6.71868 23.2773 6.94001 23.66 7.18001C24.8392 7.93308 25.7983 8.98463 26.44 10.228C26.5467 10.4333 26.5933 10.6213 26.6907 10.8347C26.8773 11.2747 27.108 11.7187 27.2973 12.144C27.484 12.564 27.664 12.992 27.932 13.34C28.0653 13.5267 28.6013 13.624 28.8413 13.7213C29.0187 13.8013 29.2947 13.8747 29.4547 13.972C29.7613 14.1587 30.06 14.372 30.348 14.5773C30.4947 14.6787 30.9387 14.9013 30.9653 15.0813Z" fill="#FFF4D6"/>
</svg>
