<svg width="32" height="32" viewBox="0 0 32 32" fill="none" xmlns="http://www.w3.org/2000/svg">
<path d="M16 8C12.44 8 10.2267 9.77333 9.33335 13.3333C10.6667 11.56 12.2267 10.8933 14 11.3333C15.0134 11.5867 15.7467 12.32 16.5467 13.1333C17.8534 14.4667 19.3334 16 22.6667 16C26.2267 16 28.44 14.2267 29.3334 10.6667C28 12.44 26.44 13.1067 24.6667 12.6667C23.6534 12.4133 22.9334 11.68 22.12 10.8667C20.8134 9.53333 19.3334 8 16 8ZM9.33335 16C5.77335 16 3.56002 17.7733 2.66669 21.3333C4.00002 19.56 5.56002 18.8933 7.33335 19.3333C8.34669 19.5867 9.06669 20.32 9.88002 21.1333C11.1867 22.4667 12.6667 24 16 24C19.56 24 21.7734 22.2267 22.6667 18.6667C21.3334 20.44 19.7734 21.1067 18 20.6667C16.9867 20.4133 16.2667 19.68 15.4534 18.8667C14.1467 17.5333 12.6667 16 9.33335 16Z" fill="#FFF4D6"/>
</svg>
